<?xml version="1.0" encoding="UTF-8" standalone="no"?>
<svg
   width="540.55304"
   height="98.538254"
   overflow="hidden"
   version="1.1"
   id="svg2"
   sodipodi:docname="Shashikant_name.svg"
   inkscape:version="1.3.2 (091e20e, 2023-11-25, custom)"
   xml:space="preserve"
   xmlns:inkscape="http://www.inkscape.org/namespaces/inkscape"
   xmlns:sodipodi="http://sodipodi.sourceforge.net/DTD/sodipodi-0.dtd"
   xmlns="http://www.w3.org/2000/svg"
   xmlns:svg="http://www.w3.org/2000/svg"><defs
     id="defs2" /><sodipodi:namedview
     id="namedview2"
     pagecolor="#ffffff"
     bordercolor="#000000"
     borderopacity="0.25"
     inkscape:showpageshadow="2"
     inkscape:pageopacity="0.0"
     inkscape:pagecheckerboard="0"
     inkscape:deskcolor="#d1d1d1"
     inkscape:zoom="1.4860213"
     inkscape:cx="256.38933"
     inkscape:cy="128.8676"
     inkscape:window-width="1920"
     inkscape:window-height="1001"
     inkscape:window-x="-9"
     inkscape:window-y="-9"
     inkscape:window-maximized="1"
     inkscape:current-layer="g2" /><g
     transform="translate(-377.61745,-203.24564)"
     id="g2"><path
       style="fill:#8658ff;stroke:none;stroke-width:0.65747"
       d="m 706.18218,260.83517 c 4.85775,-2.29806 9.44993,-5.96029 13.9262,-8.94448 2.38907,-1.5927 5.51343,-3.0807 7.33868,-5.33502 2.91519,-3.6005 0.33123,-9.24418 -4.2817,-9.40732 -3.47256,-0.12288 -6.78222,3.10724 -9.51059,4.88844 -7.14267,4.66305 -14.3267,9.27215 -21.3988,14.04309 v -20.3798 -15.62453 c 0,-2.41203 0.50527,-5.49442 -0.22172,-7.81226 -1.45675,-4.64456 -7.81383,-5.22374 -10.40875,-1.35735 -1.19994,1.78789 -0.91808,4.06833 -0.91808,6.11263 v 11.88823 46.53389 12.56756 c 0,2.227 -0.19081,4.53685 1.29077,6.3907 2.79867,3.50188 8.70561,2.26814 10.03606,-1.97508 1.79751,-5.73274 0.11043,-14.02913 0.2233,-20.04014 0.0319,-1.69472 1.79082,-5.01438 4.01674,-4.06837 2.14249,0.91057 4.21911,4.67703 5.69145,6.44601 l 12.16918,14.60553 c 1.80876,2.17321 3.69668,5.34983 6.31313,6.5988 5.06527,2.41794 10.08354,-3.5798 7.48282,-8.29712 -5.50499,-9.98523 -16.04835,-16.96052 -21.74869,-26.83341 m 162.01948,-23.43678 c -3.48109,0 -8.4403,-0.8679 -11.54724,1.02188 -3.91134,2.37899 -3.52859,8.49926 0.67931,10.34557 3.04076,1.33419 7.59902,0.52077 10.86793,0.52077 v 36.68365 c 0,4.39768 -0.45886,10.84197 5.77428,10.84197 6.15421,0 5.77429,-6.51575 5.77429,-10.84197 v -36.68365 c 3.26884,0 7.83006,0.81003 10.86923,-0.56139 4.1443,-1.87008 4.55988,-7.94313 0.67801,-10.30495 -3.10638,-1.89004 -8.06656,-1.02188 -11.54724,-1.02188 0,-7.73901 1.51291,-17.245 -0.13266,-24.79544 -0.86157,-3.95323 -5.76428,-5.60039 -9.02468,-3.40686 -2.82153,1.89829 -2.39127,5.19054 -2.39127,8.16215 v 20.04015 m -46.19422,0.14414 c -12.05266,1.60191 -22.54403,9.14461 -25.90093,21.25466 -1.4662,5.28933 -1.27216,10.86795 -1.27216,16.30385 0,5.64431 -2.76153,20.77438 5.43462,21.62287 7.92584,0.82052 6.4536,-9.61029 6.4536,-14.48994 0,-6.5195 -1.05825,-14.081 0.82873,-20.37982 2.74067,-9.14849 13.15143,-14.77622 22.2684,-11.87852 14.66197,4.66012 12.90721,20.35936 12.90721,32.598 0,4.68872 -1.60732,14.43443 5.77428,14.17624 2.75308,-0.0963 4.98013,-2.0079 5.59449,-4.66566 1.31313,-5.68072 0.17978,-12.84982 0.17978,-18.6815 0,-6.0778 0.13658,-11.9147 -2.19182,-17.66249 -4.67335,-11.53655 -17.4713,-19.87299 -30.0762,-18.19769 m -45.51493,53.52268 c 0.44407,4.92998 6.90492,7.58477 10.19228,3.33374 2.49919,-3.23181 1.35629,-9.34941 1.35629,-13.18398 0,-7.77874 0.6689,-15.90078 -1.60371,-23.43678 -1.3004,-4.31218 -3.7229,-8.35809 -6.88918,-11.54829 -3.09788,-3.12127 -6.69027,-5.50051 -10.86792,-6.9065 -11.81438,-3.97609 -25.16623,-0.42686 -33.12926,9.28389 -10.81012,13.18271 -7.97701,34.21283 6.63549,43.33252 4.557,2.844 9.88627,4.55134 15.28487,4.56003 7.69459,0.0126 12.26097,-2.23658 19.02114,-5.43463 m -20.04013,-41.68032 c 22.15558,-2.88624 27.4956,32.54991 5.09495,35.4681 -2.83991,0.36997 -5.76023,0.0875 -8.49159,-0.7299 -18.30073,-5.47658 -15.0386,-32.3366 3.39664,-34.7382 m 147.07429,35.72679 c -7.18199,1.29267 -5.53277,12.59388 1.69831,11.55561 7.65259,-1.09876 5.82075,-12.90897 -1.69831,-11.55561 z"
       id="path2" /><path
       style="fill:#030303;stroke:none;stroke-width:0.336915"
       d="m 448.44552,241.51698 v -19.20414 c 0,-2.98006 0.52227,-6.5277 -0.17964,-9.43362 -1.16925,-4.84079 -7.98562,-5.95354 -10.59851,-1.67964 -1.01103,1.65373 -0.67695,3.86876 -0.67695,5.72262 v 11.4551 44.13583 c 0,6.08887 -1.20274,13.60654 0.13258,19.54106 0.5268,2.34121 2.56391,4.02122 4.92114,4.26525 7.3002,0.75575 6.40138,-8.0321 6.40138,-12.68812 0,-7.45976 -1.61,-17.09754 0.59766,-24.25786 2.32796,-7.55047 10.76172,-12.10568 18.26957,-9.4032 8.02455,2.88848 9.43362,10.01035 9.43362,17.48916 0,7.41526 -0.68058,15.19698 0.0575,22.57328 0.46783,4.67594 4.95681,8.35139 9.36159,5.12002 2.38281,-1.74805 2.37296,-4.4723 2.37296,-7.14151 v -14.82424 c 0,-7.10413 0.59554,-14.2618 -2.46264,-20.88871 -6.89749,-14.94646 -24.16116,-17.86817 -37.63021,-10.78128 m 166.4359,0 v -15.16117 c 0,-4.25398 1.27301,-11.00554 -0.81446,-14.82399 -2.54357,-4.65274 -9.27978,-3.60653 -10.71162,1.3474 -1.72831,5.97978 -0.26594,14.32703 -0.26594,20.55181 v 44.13583 c 0,5.32536 -2.44203,18.48992 5.72755,18.77832 6.98068,0.24643 6.06447,-8.11096 6.06447,-12.71386 0,-7.57714 -1.62301,-17.34522 0.68345,-24.59477 2.3012,-7.23304 10.57391,-11.71637 17.84687,-9.14194 8.28634,2.93314 9.77052,10.18229 9.77052,17.90171 0,7.5049 -0.75245,15.45196 0.0585,22.91021 0.49543,4.55647 5.42608,7.3623 9.31638,4.3825 2.24097,-1.71649 2.41616,-4.4817 2.41716,-7.07782 v -14.48733 c 0,-7.29508 0.53336,-14.77259 -2.65814,-21.56254 -6.92235,-14.7274 -24.19319,-17.41161 -37.43472,-10.44436 m -210.5718,-27.14686 c -18.9198,2.57541 -28.7203,25.54449 -14.68101,39.85343 3.42992,3.49581 7.84261,5.77616 12.65952,6.62729 3.26212,0.57641 6.37892,0.13233 9.43361,1.77192 4.28509,2.30002 7.09897,7.39931 6.1292,12.24878 -1.19434,5.97243 -6.74152,10.37773 -12.8675,9.71203 -4.22931,-0.45958 -8.0765,-3.76041 -9.5311,-7.69054 -1.60536,-4.33748 -0.90557,-10.59761 -7.65155,-9.7071 -7.26349,0.95884 -4.69345,11.43065 -2.65503,15.77156 4.12231,8.77861 13.7854,14.5475 23.54375,13.38041 19.19168,-2.2953 28.03654,-25.90783 14.42988,-39.96651 -3.36638,-3.47823 -8.01656,-5.72572 -12.74531,-6.56127 -3.21681,-0.56839 -6.47569,-0.15929 -9.43361,-1.85148 -4.38215,-2.50693 -7.01876,-7.51346 -5.96802,-12.50613 1.16835,-5.55159 6.92517,-10.15662 12.70632,-9.33248 4.29478,0.61224 8.0487,3.61012 9.61299,7.64791 1.62138,4.18519 0.7227,10.19446 7.23274,9.73777 7.89493,-0.55385 5.11559,-11.28114 3.07773,-15.80224 -3.83962,-8.51836 -13.87768,-14.61494 -23.29261,-13.33335 m 262.79353,0.0192 c -7.50949,1.22311 -5.82246,12.72331 1.68457,11.46681 7.19078,-1.20355 5.45981,-12.63042 -1.68457,-11.46681 m -88.6086,23.28482 c -15.88064,0.57494 -23.79568,21.05362 -10.78126,31.29539 1.87024,1.4718 4.09847,2.61759 6.40138,3.23239 4.23685,1.13115 10.87732,0.58478 10.41132,7.04948 -0.25382,3.5214 -3.6572,5.9204 -7.04218,5.45876 -5.01509,-0.68397 -5.46426,-8.74637 -11.11818,-8.0298 -6.35429,0.80531 -5.38019,7.42082 -2.84766,11.33083 3.5723,5.51532 9.79212,8.69774 16.32424,8.40962 16.4618,-0.72614 21.93091,-22.6557 9.09671,-32.01809 -4.45616,-3.25071 -16.37632,-1.93634 -16.12694,-9.40917 0.11064,-3.31533 3.45548,-6.02862 6.69332,-5.66387 5.50464,0.62011 5.62249,9.10817 12.12894,7.24446 4.95778,-1.42013 4.59745,-7.4897 2.3233,-11.01421 -3.26837,-5.06534 -9.4547,-8.1033 -15.46299,-7.88579 m 88.94551,0.005 c -6.1477,0.37317 -5.39064,6.8481 -5.39064,11.24947 v 36.3868 c 0,4.47398 -0.46278,11.44652 6.06447,11.08179 6.45755,-0.36083 5.39064,-7.55377 5.39064,-12.09254 v -36.04957 c 0,-4.41979 0.33388,-10.96403 -6.06447,-10.57565 m -124.99538,52.69019 c 0.74254,4.95377 7.18631,8.28105 10.54444,3.36395 2.08963,-3.0597 0.91066,-9.23367 0.91066,-12.79755 0,-12.68108 1.22155,-25.71799 -8.76108,-35.3628 -16.31081,-15.75885 -44.27614,-6.16741 -48.96521,15.48482 -1.93857,8.95154 0.4183,18.7779 6.5727,25.60552 9.35689,10.38047 28.81114,13.63689 39.69849,3.70606 M 522.90369,249.3635 c 18.27207,-2.37445 26.88834,23.31778 11.4551,32.89807 -2.0505,1.27286 -4.35086,1.97277 -6.73829,2.28301 -2.65856,0.34549 -5.52116,0.12297 -8.08596,-0.64653 -18.30892,-5.49315 -15.02363,-32.1444 3.36915,-34.53455 z"
       id="path3" /></g></svg>
